<?xml version="1.0" encoding="utf-8" standalone="yes"?>
<!DOCTYPE svg PUBLIC "-//W3C//DTD SVG 1.1//EN" "http://www.w3.org/Graphics/SVG/1.1/DTD/svg11.dtd">
<svg xmlns="http://www.w3.org/2000/svg" xmlns:xlink="http://www.w3.org/1999/xlink" xmlns:dc="http://purl.org/dc/elements/1.1/" xmlns:cc="http://web.resource.org/cc/" xmlns:rdf="http://www.w3.org/1999/02/22-rdf-syntax-ns#" xmlns:sodipodi="http://sodipodi.sourceforge.net/DTD/sodipodi-0.dtd" xmlns:inkscape="http://www.inkscape.org/namespaces/inkscape" version="1.1" baseProfile="full" width="512px" height="512px" viewBox="0 0 512 512" preserveAspectRatio="xMidYMid meet" id="svg_document" style="zoom: 1;"><title id="svg_document_title">Untitled.svg</title><defs id="svg_document_defs"><path d="M0,31.505 V0 H3.11 v31.505 H0 L0,31.505  z M12.328,0 c-2.994,0 -5.4,2.687 -5.4,6.021 v19.461 c0,3.336 2.406,6.021 5.4,6.021 h1.746 c2.994,0 5.406,-2.686 5.406,-6.021 V6.022 C19.481,2.686 17.069,0 14.074,0 H12.328  z M13.232,2.978 c1.768,0 3.19,1.337 3.19,3.002 v19.723 c0,1.664 -1.424,3.006 -3.19,3.006 c-1.771,0 -3.191,-1.342 -3.191,-3.006 V5.98 C10.039,4.315 11.461,2.978 13.232,2.978  z " id="numeral" transform="" fill="#fbfbfb"></path><path d="M83.1,53.4l-4.5-4c6.1-6.9,9.8-16,9.8-25.9c0-9.9-3.7-19-9.9-25.9l4.5-4C90.2,1.6,94.5,12,94.5,23.5  C94.5,35,90.2,45.4,83.1,53.4z M71.9,43.4l-4.5-4c3.8-4.2,6.1-9.8,6.1-15.9c0-6.1-2.3-11.7-6.1-15.9l4.5-4  c4.7,5.3,7.6,12.3,7.6,19.9C79.5,31.1,76.6,38.1,71.9,43.4z M56.2,29.5c1.4-1.6,2.3-3.7,2.3-6c0-2.3-0.9-4.4-2.3-6l4.5-4  c2.4,2.7,3.8,6.1,3.8,10c0,3.8-1.4,7.3-3.8,9.9L56.2,29.5z" id="nfc" fill="#fbfbfb"></path></defs><g id="main_group"><use y="0" xlink:href="#numeral" transform="translate(256 128) scale(7 7) translate(-9 -16)" x="0"></use><use y="0px" xlink:href="#nfc" transform="translate(256 384) scale(4 4) translate(-73 -23)" x="0px"></use></g></svg>